<svg enable-background="new 0 0 264 280" viewBox="0 0 264 280" xmlns="http://www.w3.org/2000/svg" xmlns:xlink="http://www.w3.org/1999/xlink"><mask id="a" height="240" maskUnits="userSpaceOnUse" width="240" x="0" y="0"><circle clip-rule="evenodd" cx="120" cy="120" fill="#fff" fill-rule="evenodd" r="120"/></mask><mask id="b" height="280" maskUnits="userSpaceOnUse" width="265" x="-1" y="0"><path clip-rule="evenodd" d="m12 160c0 66.3 53.7 120 120 120s120-53.7 120-120h12v-160h-264v160z" fill="#fff" fill-rule="evenodd"/></mask><mask id="c" height="244" maskUnits="userSpaceOnUse" width="264" x="-32" y="0"><path clip-rule="evenodd" d="m124 144.6v18.4h4c39.8 0 72 32.2 72 72v9h-200v-9c0-39.8 32.2-72 72-72h4v-18.4c-17.2-8.2-29.6-24.9-31.7-44.7-5.8-.8-10.3-5.8-10.3-11.9v-14c0-5.9 4.3-10.9 10-11.8v-6.2c0-30.9 25.1-56 56-56 30.9 0 56 25.1 56 56v6.2c5.7 1 10 5.9 10 11.8v14c0 6.1-4.5 11.1-10.3 11.9-2.1 19.8-14.5 36.5-31.7 44.7z" fill="#fff" fill-rule="evenodd"/></mask><mask id="d" height="79" maskUnits="userSpaceOnUse" width="112" x="44" y="79"><path clip-rule="evenodd" d="m124 144.6v18.4h4c39.8 0 72 32.2 72 72v9h-200v-9c0-39.8 32.2-72 72-72h4v-18.4c-17.2-8.2-29.6-24.9-31.7-44.7-5.8-.8-10.3-5.8-10.3-11.9v-14c0-5.9 4.3-10.9 10-11.8v-6.2c0-30.9 25.1-56 56-56 30.9 0 56 25.1 56 56v6.2c5.7 1 10 5.9 10 11.8v14c0 6.1-4.5 11.1-10.3 11.9-2.1 19.8-14.5 36.5-31.7 44.7z" fill="#fff" fill-rule="evenodd"/></mask><mask id="e" height="110" maskUnits="userSpaceOnUse" width="264" x="0" y="0"><path clip-rule="evenodd" d="m166 29.3c37 3 66 34 66 71.8v8.9h-200v-8.9c0-38.1 29.6-69.3 67-71.9v1.1c0 11.9 15 21.5 33.5 21.5s33.5-9.6 33.5-21.5c0-.3 0-.7 0-1z" fill="#fff" fill-rule="evenodd"/></mask><mask id="f" height="53.8" maskUnits="userSpaceOnUse" width="79.3" x="92.9" y="4.9"><path clip-rule="evenodd" d="m166 29.3c37 3 66 34 66 71.8v8.9h-200v-8.9c0-38.1 29.6-69.3 67-71.9v1.1c0 11.9 15 21.5 33.5 21.5s33.5-9.6 33.5-21.5c0-.3 0-.7 0-1z" fill="#fff" fill-rule="evenodd"/></mask><mask id="g" height="16" maskUnits="userSpaceOnUse" width="31" x="39" y="2"><path clip-rule="evenodd" d="m35.1 15.1c1.1 9.5 9.1 16.9 18.9 16.9s17.9-7.4 18.9-17c.1-.8-.8-2-1.8-2-14.9 0-26.3 0-34 0-1.1 0-2.1 1.2-2 2.1z" fill="#fff" fill-rule="evenodd"/></mask><mask id="h" height="22" maskUnits="userSpaceOnUse" width="32" x="38" y="24"><path clip-rule="evenodd" d="m35.1 15.1c1.1 9.5 9.1 16.9 18.9 16.9s17.9-7.4 18.9-17c.1-.8-.8-2-1.8-2-14.9 0-26.3 0-34 0-1.1 0-2.1 1.2-2 2.1z" fill="#fff" fill-rule="evenodd"/></mask><mask id="i" height="280" maskUnits="userSpaceOnUse" width="264" x="-1" y="0"><path clip-rule="evenodd" d="m0 0h264v280h-264z" fill="#fff" fill-rule="evenodd"/></mask><mask id="j" height="280" maskUnits="userSpaceOnUse" width="264" x="0" y="0"><path clip-rule="evenodd" d="m183.7 38.9c5.4-5 6.7-15 3.6-21.5-3.8-8-11.4-9-18.7-5.5-6.9 3.3-13.1 4.4-20.6 2.8-7.3-1.5-14.1-4.3-21.6-4.7-12.4-.7-24.4 3.9-32.8 13.1-1.6 1.8-2.9 3.8-4.1 5.8-1 1.6-2.1 3.4-2.5 5.3-.2.9.2 3.1-.3 3.8-.5.8-2.3 1.5-3.1 2.1-1.6 1.2-2.9 2.5-4.2 4-2.7 3.2-4.1 6.6-5.4 10.6-4.1 13.2-4.5 29 .9 42 .7 1.7 2.9 5.4 4.2 1.6.3-.7-.3-3.2-.3-3.9 0-2.7 1.5-20.7 8-30.8 2.1-3.3 12-15.6 14-15.7 1.1 1.7 11.9 12.5 39.9 11.2 12.7-.6 22.4-6.3 24.7-8.7 1 5.5 13 13.8 14.8 17.2 5.3 9.8 6.4 30.3 8.4 30.3s3.5-5.2 3.9-6.2c3.1-7.4 3.6-16.6 3.3-24.6-.3-10.1-4.5-21.2-12.1-28.2z" fill="#fff" fill-rule="evenodd"/></mask><g><g transform="translate(12 40)"><circle clip-rule="evenodd" cx="120" cy="120" fill="#e6e6e6" fill-rule="evenodd" r="120"/><g mask="url(#a)"><path clip-rule="evenodd" d="m0 0h240v240h-240z" fill="#2c3e50" fill-rule="evenodd"/></g></g><g mask="url(#b)"><g transform="translate(32 36)"><path clip-rule="evenodd" d="m124 144.6v18.4h4c39.8 0 72 32.2 72 72v9h-200v-9c0-39.8 32.2-72 72-72h4v-18.4c-17.2-8.2-29.6-24.9-31.7-44.7-5.8-.8-10.3-5.8-10.3-11.9v-14c0-5.9 4.3-10.9 10-11.8v-6.2c0-30.9 25.1-56 56-56 30.9 0 56 25.1 56 56v6.2c5.7 1 10 5.9 10 11.8v14c0 6.1-4.5 11.1-10.3 11.9-2.1 19.8-14.5 36.5-31.7 44.7z" fill="#d0c6ac" fill-rule="evenodd"/><g mask="url(#c)"><path clip-rule="evenodd" d="m0 0h264v244h-264z" fill="#edb98a" fill-rule="evenodd" transform="translate(-32)"/></g><path clip-rule="evenodd" d="m156 79v23c0 30.9-25.1 56-56 56s-56-25.1-56-56v-23 15c0 30.9 25.1 56 56 56s56-25.1 56-56z" fill-opacity=".1" fill-rule="evenodd" mask="url(#d)"/></g><g transform="translate(0 170)"><path clip-rule="evenodd" d="m166 29.3c37 3 66 34 66 71.8v8.9h-200v-8.9c0-38.1 29.6-69.3 67-71.9v1.1c0 11.9 15 21.5 33.5 21.5s33.5-9.6 33.5-21.5c0-.3 0-.7 0-1z" fill="#e6e6e6" fill-rule="evenodd"/><g mask="url(#e)"><path clip-rule="evenodd" d="m0 0h264v110h-264z" fill="#fff" fill-rule="evenodd"/></g><g mask="url(#f)" opacity=".6"><ellipse clip-rule="evenodd" cx="40.5" cy="27.8" fill-opacity=".16" fill-rule="evenodd" rx="39.6" ry="26.9" transform="translate(92 4)"/></g></g><g transform="translate(76 82)"><g transform="translate(2 52)"><path clip-rule="evenodd" d="m35.1 15.1c1.1 9.5 9.1 16.9 18.9 16.9s17.9-7.4 18.9-17c.1-.8-.8-2-1.8-2-14.9 0-26.3 0-34 0-1.1 0-2.1 1.2-2 2.1z" fill-opacity=".7" fill-rule="evenodd"/><path clip-rule="evenodd" d="m44 2h21c2.8 0 5 2.2 5 5v6c0 2.8-2.2 5-5 5h-21c-2.8 0-5-2.2-5-5v-6c0-2.8 2.2-5 5-5z" fill="#fff" fill-rule="evenodd" mask="url(#g)"/><g mask="url(#h)"><g clip-rule="evenodd" fill="#ff4f6d" fill-rule="evenodd" transform="translate(38 24)"><circle cx="11" cy="11" r="11"/><circle cx="21" cy="11" r="11"/></g></g></g><g clip-rule="evenodd" fill-rule="evenodd"><path d="m16 8c0 4.4 5.4 8 12 8 6.6 0 12-3.6 12-8" fill-opacity=".16" transform="translate(28 40)"/><g fill-opacity=".6" transform="translate(0 8)"><path d="m16.2 22.4c1.8-3.8 6-6.4 10.8-6.4s9 2.6 10.8 6.4c.6 1.1-.2 2-1 1.4-2.5-2.1-5.9-3.4-9.8-3.4-3.7 0-7.1 1.2-9.6 3.2-.9.7-1.8 0-1.2-1.2z"/><path d="m74.2 22.4c1.8-3.8 6-6.4 10.8-6.4s9 2.6 10.8 6.4c.6 1.1-.2 2-1 1.4-2.5-2.1-5.9-3.4-9.8-3.4-3.7 0-7.1 1.2-9.6 3.2-.9.7-1.8 0-1.2-1.2z"/></g><path d="m26.5 6.1c-5.8.3-15.2 4.5-15 10.3 0 .2.3.3.4.1 2.8-3 22.3-5.9 29.2-4.4.6.1 1.1-.5.7-.9-3.3-3.7-10.1-5.3-15.3-5.1" fill-opacity=".6"/><path d="m86.5 6.1c5.8.3 15.2 4.5 15 10.3 0 .2-.3.3-.4.1-2.8-3-22.3-5.9-29.2-4.4-.6.1-1.1-.5-.7-.9 3.3-3.7 10.1-5.3 15.3-5.1" fill-opacity=".6"/></g></g><g mask="url(#i)"><g transform="translate(-1)"><path clip-rule="evenodd" d="m183.7 38.9c5.4-5 6.7-15 3.6-21.5-3.8-8-11.4-9-18.7-5.5-6.9 3.3-13.1 4.4-20.6 2.8-7.3-1.5-14.1-4.3-21.6-4.7-12.4-.7-24.4 3.9-32.8 13.1-1.6 1.8-2.9 3.8-4.1 5.8-1 1.6-2.1 3.4-2.5 5.3-.2.9.2 3.1-.3 3.8-.5.8-2.3 1.5-3.1 2.1-1.6 1.2-2.9 2.5-4.2 4-2.7 3.2-4.1 6.6-5.4 10.6-4.1 13.2-4.5 29 .9 42 .7 1.7 2.9 5.4 4.2 1.6.3-.7-.3-3.2-.3-3.9 0-2.7 1.5-20.7 8-30.8 2.1-3.3 12-15.6 14-15.7 1.1 1.7 11.9 12.5 39.9 11.2 12.7-.6 22.4-6.3 24.7-8.7 1 5.5 13 13.8 14.8 17.2 5.3 9.8 6.4 30.3 8.4 30.3s3.5-5.2 3.9-6.2c3.1-7.4 3.6-16.6 3.3-24.6-.3-10.1-4.5-21.2-12.1-28.2z" fill="#28354b" fill-rule="evenodd"/><g mask="url(#j)"><path clip-rule="evenodd" d="m0 0h264v280h-264z" fill="#4a312c" fill-rule="evenodd"/></g></g></g></g></g></svg>